<?xml version="1.0" encoding="utf-8" ?>
<svg baseProfile="tiny" height="485" version="1.2" width="300" xmlns="http://www.w3.org/2000/svg" xmlns:ev="http://www.w3.org/2001/xml-events" xmlns:xlink="http://www.w3.org/1999/xlink"><defs /><rect fill="white" height="485" width="300" x="0" y="0" /><circle cx="15" cy="209" fill="none" r="62" stroke="black" /><circle cx="228" cy="-44" fill="none" r="147" stroke="black" /><polygon fill="none" points="-160.1665,-64.0138 21.9302,-304.5086 198.8164,-170.5748 16.7197,69.9201" stroke="black" /><polygon fill="none" points="238.0602,440.0416 479.6014,458.4707 472.522,551.2578 230.9808,532.8288" stroke="black" /><polygon fill="none" points="104.8165,-59.0435 491.7686,-330.5663 762.3831,55.0914 375.431,326.6142" stroke="black" /><polygon fill="none" points="-16.8006,431.2284 -279.7897,461.0688 -334.6568,-22.4845 -71.6677,-52.325" stroke="black" /><polygon fill="none" points="188.9336,100.6056 -10.6804,-120.8696 245.1703,-150.668" stroke="black" /><polygon fill="none" points="130.4529,389.9867 -77.901,262.2129 116.3698,179.5831" stroke="black" /><polygon fill="none" points="90.3331,277.2173 -185.214,274.5079 -44.7528,81.8797" stroke="black" /></svg>