<?xml version="1.0" encoding="utf-8" ?>
<svg baseProfile="tiny" height="485" version="1.2" width="300" xmlns="http://www.w3.org/2000/svg" xmlns:ev="http://www.w3.org/2001/xml-events" xmlns:xlink="http://www.w3.org/1999/xlink"><defs /><rect fill="white" height="485" width="300" x="0" y="0" /><circle cx="65" cy="-453" fill="none" r="114" stroke="black" /><circle cx="16" cy="-399" fill="none" r="287" stroke="black" /><polygon fill="none" points="-29.9653,429.0685 315.0799,741.6147 108.4434,969.7376 -236.6018,657.1914" stroke="black" /><polygon fill="none" points="-80.3567,472.285 -114.9759,758.4703 -164.449,752.4857 -129.8297,466.3004" stroke="black" /><polygon fill="none" points="-14.5923,283.7091 134.1274,331.4402 12.0296,711.8707 -136.6901,664.1396" stroke="black" /><polygon fill="none" points="-36.3226,371.0109 249.9096,220.8201 341.7076,395.7677 55.4755,545.9586" stroke="black" /><polygon fill="none" points="279.16,120.2953 207.2818,-50.1845 363.2059,-14.9834" stroke="black" /><polygon fill="none" points="207.8706,409.7259 305.5277,221.6039 388.4909,385.184" stroke="black" /><polygon fill="none" points="221.4451,421.1351 -19.4212,258.1505 216.2401,170.0915" stroke="black" /></svg>