<?xml version="1.0" encoding="utf-8" ?>
<svg baseProfile="tiny" height="485" version="1.2" width="300" xmlns="http://www.w3.org/2000/svg" xmlns:ev="http://www.w3.org/2001/xml-events" xmlns:xlink="http://www.w3.org/1999/xlink"><defs /><rect fill="white" height="485" width="300" x="0" y="0" /><circle cx="211" cy="-165" fill="none" r="116" stroke="black" /><circle cx="130" cy="-261" fill="none" r="50" stroke="black" /><circle cx="-111" cy="284" fill="none" r="230" stroke="black" /><polygon fill="none" points="113.7259,-283.2051 245.9435,-517.1031 286.501,-494.1768 154.2834,-260.2788" stroke="black" /><polygon fill="none" points="-48.6349,-326.3857 114.0268,-195.7399 -167.198,154.4013 -329.8597,23.7555" stroke="black" /><polygon fill="none" points="-51.3343,339.1588 373.7242,222.3091 412.7641,364.3224 -12.2944,481.1721" stroke="black" /><polygon fill="none" points="-218.2026,-17.3314 -180.7534,-38.1207 -122.6219,66.5952 -160.071,87.3846" stroke="black" /><polygon fill="none" points="249.7466,209.7355 104.8583,99.0588 255.1315,52.7769" stroke="black" /><polygon fill="none" points="238.6127,427.2545 -14.1631,293.2351 206.8936,181.8021" stroke="black" /><polygon fill="none" points="117.9326,469.1031 251.9892,565.4622 116.812,611.155" stroke="black" /></svg>