<?xml version="1.0" encoding="utf-8" ?>
<svg baseProfile="tiny" height="485" version="1.2" width="300" xmlns="http://www.w3.org/2000/svg" xmlns:ev="http://www.w3.org/2001/xml-events" xmlns:xlink="http://www.w3.org/1999/xlink"><defs /><rect fill="white" height="485" width="300" x="0" y="0" /><circle cx="-43" cy="-456" fill="none" r="59" stroke="black" /><circle cx="-146" cy="-1" fill="none" r="240" stroke="black" /><circle cx="-88" cy="-235" fill="none" r="88" stroke="black" /><polygon fill="none" points="-58.4018,-467.024 -498.9819,-620.6007 -469.1992,-706.041 -28.6192,-552.4643" stroke="black" /><polygon fill="none" points="-182.3929,-378.1451 -161.0033,-215.3652 -333.4528,-192.7049 -354.8425,-355.4848" stroke="black" /><polygon fill="none" points="96.4874,-452.8677 95.819,-400.9714 -210.9307,-404.9225 -210.2623,-456.8188" stroke="black" /><polygon fill="none" points="-14.1528,377.0803 -18.7349,313.2158 279.779,291.7982 284.3612,355.6628" stroke="black" /><polygon fill="none" points="193.8713,361.8488 257.3229,150.0374 374.8764,301.2422" stroke="black" /><polygon fill="none" points="3.2404,260.486 32.5344,359.5045 -52.2924,330.1" stroke="black" /><polygon fill="none" points="128.9904,260.9755 137.565,295.3261 108.8519,283.5242" stroke="black" /></svg>