<?xml version="1.0" encoding="utf-8" ?>
<svg baseProfile="tiny" height="485" version="1.2" width="300" xmlns="http://www.w3.org/2000/svg" xmlns:ev="http://www.w3.org/2001/xml-events" xmlns:xlink="http://www.w3.org/1999/xlink"><defs /><rect fill="white" height="485" width="300" x="0" y="0" /><circle cx="203" cy="396" fill="none" r="68" stroke="black" /><circle cx="288" cy="-44" fill="none" r="279" stroke="black" /><circle cx="-169" cy="-471" fill="none" r="51" stroke="black" /><polygon fill="none" points="-169.1788,-63.1822 -396.356,94.0104 -597.0852,-196.0865 -369.9081,-353.2791" stroke="black" /><polygon fill="none" points="232.0675,158.0415 227.8855,598.3615 -81.094,595.427 -76.9121,155.107" stroke="black" /><polygon fill="none" points="-64.0024,-428.7313 -298.6615,-223.9847 -372.9288,-309.1022 -138.2698,-513.8488" stroke="black" /><polygon fill="none" points="102.8583,308.5406 148.5054,275.4089 428.2169,660.7809 382.5697,693.9126" stroke="black" /><polygon fill="none" points="270.1673,130.6609 366.9557,103.6893 337.3913,185.6331" stroke="black" /><polygon fill="none" points="128.8148,70.3341 75.9547,44.8303 120.5123,20.8057" stroke="black" /><polygon fill="none" points="69.0557,382.1084 203.0195,341.6591 163.4375,455.9804" stroke="black" /></svg>