<?xml version="1.0" encoding="utf-8" ?>
<svg baseProfile="tiny" height="485" version="1.2" width="300" xmlns="http://www.w3.org/2000/svg" xmlns:ev="http://www.w3.org/2001/xml-events" xmlns:xlink="http://www.w3.org/1999/xlink"><defs /><rect fill="white" height="485" width="300" x="0" y="0" /><circle cx="-151" cy="251" fill="none" r="237" stroke="black" /><circle cx="-78" cy="-113" fill="none" r="156" stroke="black" /><circle cx="-282" cy="-465" fill="none" r="275" stroke="black" /><polygon fill="none" points="153.5326,-47.622 91.8073,168.5222 -31.1196,133.4174 30.6057,-82.7268" stroke="black" /><polygon fill="none" points="-236.5564,106.9115 190.9899,-143.7443 352.0711,131.0137 -75.4751,381.6695" stroke="black" /><polygon fill="none" points="-66.5785,370.0564 -233.0382,-61.3104 -107.7967,-109.6397 58.6629,321.7271" stroke="black" /><polygon fill="none" points="31.9062,-227.9279 -10.4743,-209.4485 -204.5204,-654.4713 -162.1399,-672.9507" stroke="black" /><polygon fill="none" points="6.9426,88.6367 15.913,129.2788 -17.0652,114.417" stroke="black" /><polygon fill="none" points="46.4262,193.1011 97.6322,183.2667 78.7495,223.5512" stroke="black" /><polygon fill="none" points="232.5544,287.4526 402.983,184.5166 389.6769,356.1075" stroke="black" /></svg>