<?xml version="1.0" encoding="utf-8" ?>
<svg baseProfile="tiny" height="485" version="1.2" width="300" xmlns="http://www.w3.org/2000/svg" xmlns:ev="http://www.w3.org/2001/xml-events" xmlns:xlink="http://www.w3.org/1999/xlink"><defs /><rect fill="white" height="485" width="300" x="0" y="0" /><circle cx="297" cy="369" fill="none" r="112" stroke="black" /><circle cx="127" cy="-462" fill="none" r="94" stroke="black" /><circle cx="181" cy="-285" fill="none" r="184" stroke="black" /><polygon fill="none" points="-9.6936,130.6639 -285.3462,-38.6767 -232.1285,-125.3045 43.5241,44.0361" stroke="black" /><polygon fill="none" points="-233.9198,-339.1467 -237.615,-284.9289 -483.7359,-301.7034 -480.0407,-355.9212" stroke="black" /><polygon fill="none" points="90.971,65.5691 359.5553,-79.2214 443.1938,75.9269 174.6095,220.7173" stroke="black" /><polygon fill="none" points="-198.7946,-326.2886 -543.8582,-165.1167 -687.1034,-471.7998 -342.0398,-632.9717" stroke="black" /><polygon fill="none" points="294.3064,260.0741 528.1446,281.6087 395.5905,436.104" stroke="black" /><polygon fill="none" points="116.2539,8.0111 357.4115,60.9171 199.1107,204.3266" stroke="black" /><polygon fill="none" points="136.3428,407.2056 30.7084,482.4016 31.4308,370.1857" stroke="black" /></svg>