<?xml version="1.0" encoding="utf-8" ?>
<svg baseProfile="tiny" height="485" version="1.2" width="300" xmlns="http://www.w3.org/2000/svg" xmlns:ev="http://www.w3.org/2001/xml-events" xmlns:xlink="http://www.w3.org/1999/xlink"><defs /><rect fill="white" height="485" width="300" x="0" y="0" /><circle cx="37" cy="-30" fill="none" r="21" stroke="black" /><circle cx="48" cy="274" fill="none" r="88" stroke="black" /><circle cx="273" cy="-121" fill="none" r="53" stroke="black" /><polygon fill="none" points="-94.257,345.8549 -119.0272,408.8866 -318.1142,330.6493 -293.344,267.6176" stroke="black" /><polygon fill="none" points="51.9126,195.2848 250.4857,-111.4972 497.5257,48.4061 298.9526,355.1882" stroke="black" /><polygon fill="none" points="297.1193,-471.6915 234.6978,-240.8215 -177.8887,-352.3746 -115.4672,-583.2445" stroke="black" /><polygon fill="none" points="-5.4777,-7.0184 225.7668,-142.5153 444.5253,230.8265 213.2807,366.3235" stroke="black" /><polygon fill="none" points="124.453,67.4513 302.8719,-65.9797 307.3717,126.703" stroke="black" /><polygon fill="none" points="265.7397,190.9319 366.5466,273.0222 258.6801,302.5391" stroke="black" /><polygon fill="none" points="188.729,205.6415 225.4776,190.083 217.142,224.0182" stroke="black" /></svg>