<?xml version="1.0" encoding="utf-8" ?>
<svg baseProfile="tiny" height="485" version="1.2" width="300" xmlns="http://www.w3.org/2000/svg" xmlns:ev="http://www.w3.org/2001/xml-events" xmlns:xlink="http://www.w3.org/1999/xlink"><defs /><rect fill="white" height="485" width="300" x="0" y="0" /><circle cx="233" cy="301" fill="none" r="70" stroke="black" /><circle cx="-52" cy="283" fill="none" r="261" stroke="black" /><circle cx="96" cy="402" fill="none" r="287" stroke="black" /><polygon fill="none" points="-117.5141,404.7851 81.2237,268.4814 127.0482,335.2957 -71.6897,471.5995" stroke="black" /><polygon fill="none" points="-103.5352,238.1743 -108.0994,306.3539 -498.6413,280.2095 -494.0771,212.0299" stroke="black" /><polygon fill="none" points="-253.5445,-429.9979 57.0759,-532.0502 115.9886,-352.7356 -194.6318,-250.6832" stroke="black" /><polygon fill="none" points="108.8601,215.5242 300.6329,24.914 497.7001,223.1831 305.9273,413.7933" stroke="black" /><polygon fill="none" points="164.8342,188.6243 76.0702,184.416 123.8197,124.6102" stroke="black" /><polygon fill="none" points="171.7479,191.9408 228.985,196.2252 196.6839,233.9193" stroke="black" /><polygon fill="none" points="37.1685,434.1058 123.2949,580.5627 -23.6906,567.3431" stroke="black" /></svg>