<?xml version="1.0" encoding="utf-8" ?>
<svg baseProfile="tiny" height="485" version="1.2" width="300" xmlns="http://www.w3.org/2000/svg" xmlns:ev="http://www.w3.org/2001/xml-events" xmlns:xlink="http://www.w3.org/1999/xlink"><defs /><rect fill="white" height="485" width="300" x="0" y="0" /><circle cx="-102" cy="374" fill="none" r="136" stroke="black" /><circle cx="224" cy="254" fill="none" r="127" stroke="black" /><circle cx="-99" cy="265" fill="none" r="88" stroke="black" /><polygon fill="none" points="44.2003,123.5131 -120.6269,404.3093 -513.5315,173.6746 -348.7043,-107.1216" stroke="black" /><polygon fill="none" points="-159.0641,-121.3866 -267.9923,-461.6328 -141.7863,-502.0371 -32.8581,-161.7908" stroke="black" /><polygon fill="none" points="-115.2376,-137.087 -144.6095,-98.7651 -220.5383,-156.9608 -191.1664,-195.2827" stroke="black" /><polygon fill="none" points="-23.2928,-209.155 40.2709,-449.1579 246.3486,-394.5791 182.7849,-154.5762" stroke="black" /><polygon fill="none" points="181.7733,272.7102 176.3637,343.4908 129.2515,303.7981" stroke="black" /><polygon fill="none" points="6.522,137.1929 -41.1238,241.8763 -90.8136,155.5177" stroke="black" /><polygon fill="none" points="211.7037,343.9099 340.5922,495.404 169.2247,510.0319" stroke="black" /></svg>