<?xml version="1.0" encoding="utf-8" ?>
<svg baseProfile="tiny" height="485" version="1.2" width="300" xmlns="http://www.w3.org/2000/svg" xmlns:ev="http://www.w3.org/2001/xml-events" xmlns:xlink="http://www.w3.org/1999/xlink"><defs /><rect fill="white" height="485" width="300" x="0" y="0" /><circle cx="-50" cy="7" fill="none" r="256" stroke="black" /><circle cx="-43" cy="276" fill="none" r="135" stroke="black" /><polygon fill="none" points="208.7926,234.8226 330.8321,440.938 99.7808,577.7419 -22.2587,371.6265" stroke="black" /><polygon fill="none" points="-149.6486,-318.9129 -188.438,-296.9255 -285.3913,-467.9666 -246.6019,-489.9541" stroke="black" /><polygon fill="none" points="-93.3472,-193.1935 -555.7746,-10.6861 -718.6753,-423.4351 -256.248,-605.9425" stroke="black" /><polygon fill="none" points="-287.0953,-446.432 -471.5641,-654.3579 -181.1873,-911.9759 3.2815,-704.0499" stroke="black" /><polygon fill="none" points="125.2864,431.2019 166.8244,434.7777 142.7255,461.8104" stroke="black" /><polygon fill="none" points="276.9882,366.1508 473.8419,245.6474 460.1716,445.1309" stroke="black" /><polygon fill="none" points="66.6233,252.6569 25.1591,151.8039 117.3057,173.4339" stroke="black" /></svg>