<?xml version="1.0" encoding="utf-8" ?>
<svg baseProfile="tiny" height="485" version="1.2" width="300" xmlns="http://www.w3.org/2000/svg" xmlns:ev="http://www.w3.org/2001/xml-events" xmlns:xlink="http://www.w3.org/1999/xlink"><defs /><rect fill="white" height="485" width="300" x="0" y="0" /><circle cx="-76" cy="-168" fill="none" r="260" stroke="black" /><circle cx="-264" cy="182" fill="none" r="262" stroke="black" /><circle cx="157" cy="-224" fill="none" r="119" stroke="black" /><polygon fill="none" points="131.5417,-195.7743 419.5208,47.8241 227.1996,275.1839 -60.7795,31.5855" stroke="black" /><polygon fill="none" points="203.0901,-92.9886 152.4437,-79.0297 22.3554,-551.0215 73.0018,-564.9805" stroke="black" /><polygon fill="none" points="-228.508,-67.9192 -507.5278,-101.7993 -501.066,-155.0152 -222.0463,-121.1351" stroke="black" /><polygon fill="none" points="203.4815,-210.4533 253.1243,130.0546 30.8751,162.4564 -18.7677,-178.0515" stroke="black" /><polygon fill="none" points="110.0458,349.1831 215.1721,349.1585 162.0632,423.171" stroke="black" /><polygon fill="none" points="293.6469,230.3434 371.2636,270.0626 304.1373,304.2349" stroke="black" /><polygon fill="none" points="189.9924,420.283 266.3495,516.5354 160.529,521.5199" stroke="black" /></svg>