<?xml version="1.0" encoding="utf-8" ?>
<svg baseProfile="tiny" height="485" version="1.2" width="300" xmlns="http://www.w3.org/2000/svg" xmlns:ev="http://www.w3.org/2001/xml-events" xmlns:xlink="http://www.w3.org/1999/xlink"><defs /><rect fill="white" height="485" width="300" x="0" y="0" /><circle cx="102" cy="-26" fill="none" r="86" stroke="black" /><circle cx="103" cy="-351" fill="none" r="98" stroke="black" /><circle cx="21" cy="-46" fill="none" r="183" stroke="black" /><polygon fill="none" points="-101.0024,85.2374 -211.7225,361.3773 -391.683,289.221 -280.963,13.081" stroke="black" /><polygon fill="none" points="-79.5815,465.793 -283.4143,147.1779 131.6259,-118.3424 335.4586,200.2727" stroke="black" /><polygon fill="none" points="-150.0707,59.2548 -98.3589,-15.7424 17.1421,63.8974 -34.5696,138.8946" stroke="black" /><polygon fill="none" points="122.7184,-377.113 -113.02,-169.2924 -225.6409,-297.0424 10.0976,-504.863" stroke="black" /><polygon fill="none" points="253.0703,388.0829 267.9056,119.4855 450.171,264.765" stroke="black" /><polygon fill="none" points="89.8077,259.8023 69.205,127.6552 172.5186,180.1097" stroke="black" /><polygon fill="none" points="283.4802,441.9086 498.0683,461.7124 376.0591,603.0984" stroke="black" /></svg>