<?xml version="1.0" encoding="utf-8" ?>
<svg baseProfile="tiny" height="485" version="1.2" width="300" xmlns="http://www.w3.org/2000/svg" xmlns:ev="http://www.w3.org/2001/xml-events" xmlns:xlink="http://www.w3.org/1999/xlink"><defs /><rect fill="white" height="485" width="300" x="0" y="0" /><circle cx="95" cy="-6" fill="none" r="55" stroke="black" /><circle cx="-299" cy="173" fill="none" r="195" stroke="black" /><polygon fill="none" points="-182.4115,212.4096 -274.5429,72.3178 63.0245,-149.6836 155.156,-9.5918" stroke="black" /><polygon fill="none" points="-156.8786,422.4515 -379.4958,212.0334 -217.3162,40.4513 5.301,250.8694" stroke="black" /><polygon fill="none" points="181.0899,283.3055 208.4968,370.2661 -261.6077,518.4265 -289.0146,431.4658" stroke="black" /><polygon fill="none" points="-138.7985,136.6862 -273.8785,217.8926 -298.0426,177.6976 -162.9626,96.4913" stroke="black" /><polygon fill="none" points="155.474,214.6604 186.3621,301.2255 110.3193,278.5514" stroke="black" /><polygon fill="none" points="88.6367,13.0092 -69.4136,81.0554 -38.202,-64.1201" stroke="black" /><polygon fill="none" points="15.6243,350.9915 -104.3099,515.0194 -159.4236,348.1186" stroke="black" /></svg>