<?xml version="1.0" encoding="utf-8" ?>
<svg baseProfile="tiny" height="485" version="1.2" width="300" xmlns="http://www.w3.org/2000/svg" xmlns:ev="http://www.w3.org/2001/xml-events" xmlns:xlink="http://www.w3.org/1999/xlink"><defs /><rect fill="white" height="485" width="300" x="0" y="0" /><circle cx="3" cy="-370" fill="none" r="74" stroke="black" /><circle cx="134" cy="119" fill="none" r="28" stroke="black" /><circle cx="253" cy="162" fill="none" r="90" stroke="black" /><polygon fill="none" points="-260.6534,366.6792 -575.7282,714.228 -916.8027,405.0226 -601.7279,57.4737" stroke="black" /><polygon fill="none" points="158.7148,106.086 201.2754,229.4388 -38.0357,312.0088 -80.5964,188.6561" stroke="black" /><polygon fill="none" points="-139.4752,-353.9352 296.6091,-592.8881 470.9548,-274.7107 34.8706,-35.7577" stroke="black" /><polygon fill="none" points="-195.2622,395.0763 -160.4139,78.2727 15.3793,97.6099 -19.469,414.4135" stroke="black" /><polygon fill="none" points="236.8408,2.2857 477.5805,-122.0512 444.4351,110.0381" stroke="black" /><polygon fill="none" points="168.9889,285.8322 102.4493,357.7155 85.7461,274.1855" stroke="black" /><polygon fill="none" points="198.2441,108.4958 -42.6877,14.4591 144.2467,-107.9511" stroke="black" /></svg>