<?xml version="1.0" encoding="utf-8" ?>
<svg baseProfile="tiny" height="485" version="1.2" width="300" xmlns="http://www.w3.org/2000/svg" xmlns:ev="http://www.w3.org/2001/xml-events" xmlns:xlink="http://www.w3.org/1999/xlink"><defs /><rect fill="white" height="485" width="300" x="0" y="0" /><circle cx="131" cy="-308" fill="none" r="141" stroke="black" /><circle cx="244" cy="-395" fill="none" r="54" stroke="black" /><circle cx="-237" cy="-189" fill="none" r="163" stroke="black" /><polygon fill="none" points="-62.8278,473.3925 -35.1913,352.1925 24.2451,365.7455 -3.3915,486.9454" stroke="black" /><polygon fill="none" points="-75.3999,-17.2714 -231.853,-70.7884 -179.9054,-222.6533 -23.4523,-169.1363" stroke="black" /><polygon fill="none" points="49.1654,-69.6272 52.0701,-14.9902 -228.1404,-0.0934 -231.0451,-54.7304" stroke="black" /><polygon fill="none" points="-78.8932,95.5301 -315.5564,475.0987 -519.8487,347.7213 -283.1855,-31.8474" stroke="black" /><polygon fill="none" points="69.9201,176.3731 -24.1353,112.9492 68.2171,78.7355" stroke="black" /><polygon fill="none" points="172.3129,441.4085 3.3276,603.4084 -26.3306,403.2675" stroke="black" /><polygon fill="none" points="286.4502,76.8793 381.0565,-56.5354 427.1122,77.3265" stroke="black" /></svg>