<?xml version="1.0" encoding="utf-8" ?>
<svg baseProfile="tiny" height="485" version="1.2" width="300" xmlns="http://www.w3.org/2000/svg" xmlns:ev="http://www.w3.org/2001/xml-events" xmlns:xlink="http://www.w3.org/1999/xlink"><defs /><rect fill="white" height="485" width="300" x="0" y="0" /><circle cx="-172" cy="231" fill="none" r="190" stroke="black" /><circle cx="-177" cy="369" fill="none" r="250" stroke="black" /><polygon fill="none" points="112.9231,-344.1252 -180.228,-669.4834 -128.5377,-716.0569 164.6134,-390.6987" stroke="black" /><polygon fill="none" points="-225.1654,-385.3956 -712.4289,-353.4926 -743.1215,-822.2706 -255.858,-854.1735" stroke="black" /><polygon fill="none" points="-115.0578,-215.1483 -107.7897,-265.0322 324.4934,-202.0484 317.2253,-152.1645" stroke="black" /><polygon fill="none" points="-217.4872,27.5487 -399.1284,63.6051 -420.2199,-42.6475 -238.5788,-78.7039" stroke="black" /><polygon fill="none" points="50.7293,112.3675 -80.6236,291.5105 -141.5178,109.0473" stroke="black" /><polygon fill="none" points="52.7991,268.414 -66.4733,186.6427 51.0915,143.5737" stroke="black" /><polygon fill="none" points="299.0074,168.9147 393.535,79.9787 407.9764,191.3366" stroke="black" /></svg>