<?xml version="1.0" encoding="utf-8" ?>
<svg baseProfile="tiny" height="485" version="1.2" width="300" xmlns="http://www.w3.org/2000/svg" xmlns:ev="http://www.w3.org/2001/xml-events" xmlns:xlink="http://www.w3.org/1999/xlink"><defs /><rect fill="white" height="485" width="300" x="0" y="0" /><circle cx="93" cy="-237" fill="none" r="276" stroke="black" /><circle cx="-223" cy="123" fill="none" r="106" stroke="black" /><polygon fill="none" points="240.2369,-65.1755 -191.9847,-113.9521 -187.6561,-152.3093 244.5655,-103.5328" stroke="black" /><polygon fill="none" points="142.1543,300.4386 90.9304,586.9019 9.1979,572.2869 60.4218,285.8236" stroke="black" /><polygon fill="none" points="51.6536,193.6051 -234.8272,510.1542 -581.9132,196.0371 -295.4324,-120.512" stroke="black" /><polygon fill="none" points="43.2378,201.8431 -97.4217,137.9547 -3.8389,-68.0813 136.8206,-4.193" stroke="black" /><polygon fill="none" points="120.1176,64.4861 -81.4257,109.7181 -12.3538,-55.4153" stroke="black" /><polygon fill="none" points="258.2087,213.1499 166.3458,23.329 346.589,53.7293" stroke="black" /><polygon fill="none" points="151.8269,211.5564 18.9056,278.2787 38.5863,150.9135" stroke="black" /></svg>