<?xml version="1.0" encoding="utf-8" ?>
<svg baseProfile="tiny" height="485" version="1.2" width="300" xmlns="http://www.w3.org/2000/svg" xmlns:ev="http://www.w3.org/2001/xml-events" xmlns:xlink="http://www.w3.org/1999/xlink"><defs /><rect fill="white" height="485" width="300" x="0" y="0" /><circle cx="-103" cy="-443" fill="none" r="88" stroke="black" /><circle cx="-44" cy="-243" fill="none" r="202" stroke="black" /><polygon fill="none" points="-222.3606,325.7399 -78.3349,-85.7685 74.8671,-32.1487 -69.1585,379.3598" stroke="black" /><polygon fill="none" points="-242.9948,297.2319 46.225,259.1641 57.3254,343.4997 -231.8943,381.5674" stroke="black" /><polygon fill="none" points="77.8098,471.9205 -122.4688,448.9171 -74.4119,30.5113 125.8667,53.5147" stroke="black" /><polygon fill="none" points="-25.3184,-165.3328 323.9897,-66.0082 221.1246,295.7515 -128.1836,196.4269" stroke="black" /><polygon fill="none" points="68.994,448.4516 -79.2868,263.1684 125.65,251.9749" stroke="black" /><polygon fill="none" points="134.3626,42.6676 -62.0684,-138.0586 163.7765,-185.7352" stroke="black" /><polygon fill="none" points="65.4885,186.1248 290.8631,327.581 78.1949,416.0629" stroke="black" /></svg>