<?xml version="1.0" encoding="utf-8" ?>
<svg baseProfile="tiny" height="485" version="1.2" width="300" xmlns="http://www.w3.org/2000/svg" xmlns:ev="http://www.w3.org/2001/xml-events" xmlns:xlink="http://www.w3.org/1999/xlink"><defs /><rect fill="white" height="485" width="300" x="0" y="0" /><circle cx="61" cy="-265" fill="none" r="143" stroke="black" /><circle cx="-165" cy="-459" fill="none" r="24" stroke="black" /><polygon fill="none" points="-219.6539,6.763 52.6169,-200.0513 182.682,-28.8208 -89.5889,177.9935" stroke="black" /><polygon fill="none" points="94.9714,-329.6893 165.2762,-326.9323 148.5153,100.4837 78.2105,97.7268" stroke="black" /><polygon fill="none" points="218.2484,170.7268 -16.0785,-84.107 73.6859,-166.6479 308.0128,88.1859" stroke="black" /><polygon fill="none" points="100.9938,163.2033 -97.1488,255.9499 -180.7465,77.3529 17.3961,-15.3937" stroke="black" /><polygon fill="none" points="122.2765,45.8519 308.409,50.4478 212.0146,179.1076" stroke="black" /><polygon fill="none" points="74.2759,262.2821 311.8693,216.8487 224.2576,407.7004" stroke="black" /><polygon fill="none" points="21.771,351.2361 96.8217,312.8754 86.0212,384.6561" stroke="black" /></svg>