<?xml version="1.0" encoding="utf-8" ?>
<svg baseProfile="tiny" height="485" version="1.2" width="300" xmlns="http://www.w3.org/2000/svg" xmlns:ev="http://www.w3.org/2001/xml-events" xmlns:xlink="http://www.w3.org/1999/xlink"><defs /><rect fill="white" height="485" width="300" x="0" y="0" /><circle cx="-189" cy="66" fill="none" r="120" stroke="black" /><circle cx="-175" cy="-317" fill="none" r="234" stroke="black" /><polygon fill="none" points="104.4847,-388.3828 -61.8802,-468.9467 34.5803,-668.1382 200.9452,-587.5743" stroke="black" /><polygon fill="none" points="-79.1703,-261.1273 37.8968,-42.7211 -341.3259,160.5445 -458.3929,-57.8617" stroke="black" /><polygon fill="none" points="38.6985,-460.2777 -183.7027,-891.4842 -134.2823,-916.9735 88.1188,-485.767" stroke="black" /><polygon fill="none" points="236.6484,40.8269 549.6671,111.5613 483.1832,405.7705 170.1645,335.0361" stroke="black" /><polygon fill="none" points="82.33,136.6241 -75.229,276.4779 -94.445,95.6411" stroke="black" /><polygon fill="none" points="78.2779,245.0634 22.8958,229.2886 62.3066,198.9232" stroke="black" /><polygon fill="none" points="226.3678,213.4578 285.5108,347.3159 161.6566,321.8573" stroke="black" /></svg>