<?xml version="1.0" encoding="utf-8" ?>
<svg baseProfile="tiny" height="485" version="1.2" width="300" xmlns="http://www.w3.org/2000/svg" xmlns:ev="http://www.w3.org/2001/xml-events" xmlns:xlink="http://www.w3.org/1999/xlink"><defs /><rect fill="white" height="485" width="300" x="0" y="0" /><circle cx="174" cy="-139" fill="none" r="255" stroke="black" /><circle cx="-293" cy="365" fill="none" r="228" stroke="black" /><polygon fill="none" points="19.6434,-144.1968 -51.6549,-482.2211 -2.737,-492.5392 68.5614,-154.5149" stroke="black" /><polygon fill="none" points="244.9237,-455.422 274.2894,-618.2533 681.9433,-544.7354 652.5777,-381.904" stroke="black" /><polygon fill="none" points="35.984,291.4749 227.6199,352.4403 177.0894,511.2756 -14.5465,450.3102" stroke="black" /><polygon fill="none" points="280.3863,-327.3465 352.1894,-356.5851 534.2517,90.5166 462.4485,119.7552" stroke="black" /><polygon fill="none" points="12.692,385.5787 -152.4032,480.3932 -136.4231,316.6897" stroke="black" /><polygon fill="none" points="166.4095,484.6604 95.1201,299.1629 261.5763,342.0271" stroke="black" /><polygon fill="none" points="167.2583,42.5551 167.4459,85.573 137.3502,63.6857" stroke="black" /></svg>