<?xml version="1.0" encoding="utf-8" ?>
<svg baseProfile="tiny" height="485" version="1.2" width="300" xmlns="http://www.w3.org/2000/svg" xmlns:ev="http://www.w3.org/2001/xml-events" xmlns:xlink="http://www.w3.org/1999/xlink"><defs /><rect fill="white" height="485" width="300" x="0" y="0" /><circle cx="-238" cy="-279" fill="none" r="185" stroke="black" /><circle cx="115" cy="-379" fill="none" r="101" stroke="black" /><circle cx="-253" cy="105" fill="none" r="196" stroke="black" /><polygon fill="none" points="124.1681,-410.6455 -44.0363,-104.162 -366.324,-281.04 -198.1196,-587.5235" stroke="black" /><polygon fill="none" points="233.4214,155.9511 391.6084,198.2609 277.5225,624.8027 119.3355,582.4929" stroke="black" /><polygon fill="none" points="-115.1479,70.7791 -216.8838,-9.2363 -173.1994,-64.7789 -71.4635,15.2365" stroke="black" /><polygon fill="none" points="-149.0268,217.3247 -103.8183,178.4514 173.0674,500.4609 127.8589,539.3342" stroke="black" /><polygon fill="none" points="100.117,37.6974 190.6693,-189.7768 305.9715,-11.6677" stroke="black" /><polygon fill="none" points="295.0866,306.0463 282.2575,359.0532 251.8016,323.3497" stroke="black" /><polygon fill="none" points="8.2697,342.7717 127.9466,258.4736 127.2645,384.9409" stroke="black" /></svg>