<?xml version="1.0" encoding="utf-8" ?>
<svg baseProfile="tiny" height="485" version="1.2" width="300" xmlns="http://www.w3.org/2000/svg" xmlns:ev="http://www.w3.org/2001/xml-events" xmlns:xlink="http://www.w3.org/1999/xlink"><defs /><rect fill="white" height="485" width="300" x="0" y="0" /><circle cx="-2" cy="-124" fill="none" r="79" stroke="black" /><circle cx="57" cy="95" fill="none" r="39" stroke="black" /><polygon fill="none" points="-185.7422,-55.1791 202.7176,97.4842 160.1303,205.8496 -228.3295,53.1863" stroke="black" /><polygon fill="none" points="178.3994,82.5198 134.5503,-211.143 337.2298,-241.4067 381.0789,52.2561" stroke="black" /><polygon fill="none" points="-30.789,396.955 -17.4437,336.8622 82.7801,359.1199 69.4347,419.2126" stroke="black" /><polygon fill="none" points="-224.3768,-274.0337 -121.301,-655.6534 -76.5288,-643.5604 -179.6046,-261.9407" stroke="black" /><polygon fill="none" points="134.9201,469.9708 410.9617,357.7781 351.0983,608.7908" stroke="black" /><polygon fill="none" points="43.9023,460.4087 42.8651,721.8867 -140.6119,589.6778" stroke="black" /><polygon fill="none" points="252.2594,34.2885 351.2057,43.3759 294.6521,108.4765" stroke="black" /></svg>