<?xml version="1.0" encoding="utf-8" ?>
<svg baseProfile="tiny" height="485" version="1.2" width="300" xmlns="http://www.w3.org/2000/svg" xmlns:ev="http://www.w3.org/2001/xml-events" xmlns:xlink="http://www.w3.org/1999/xlink"><defs /><rect fill="white" height="485" width="300" x="0" y="0" /><circle cx="245" cy="-141" fill="none" r="149" stroke="black" /><circle cx="249" cy="209" fill="none" r="272" stroke="black" /><polygon fill="none" points="220.6273,133.0252 99.1409,362.4974 -99.3716,257.4016 22.1148,27.9293" stroke="black" /><polygon fill="none" points="-53.417,383.0324 290.9427,744.302 -47.2768,1066.6903 -391.6364,705.4207" stroke="black" /><polygon fill="none" points="-160.931,86.5651 -164.2566,-158.2317 80.1051,-161.5513 83.4306,83.2454" stroke="black" /><polygon fill="none" points="-123.0455,240.0856 -70.1289,252.0906 -147.0471,591.1348 -199.9636,579.1298" stroke="black" /><polygon fill="none" points="182.0211,318.8778 126.1999,476.1898 43.0584,357.6382" stroke="black" /><polygon fill="none" points="101.702,268.8568 50.5476,281.1677 67.7664,238.9674" stroke="black" /><polygon fill="none" points="126.3378,399.5071 241.6504,165.8011 348.8673,364.3419" stroke="black" /></svg>