<?xml version="1.0" encoding="utf-8" ?>
<svg baseProfile="tiny" height="485" version="1.2" width="300" xmlns="http://www.w3.org/2000/svg" xmlns:ev="http://www.w3.org/2001/xml-events" xmlns:xlink="http://www.w3.org/1999/xlink"><defs /><rect fill="white" height="485" width="300" x="0" y="0" /><circle cx="141" cy="268" fill="none" r="163" stroke="black" /><circle cx="-280" cy="-370" fill="none" r="218" stroke="black" /><polygon fill="none" points="208.4846,-41.4853 -159.9601,77.9576 -201.0776,-48.8774 167.3671,-168.3203" stroke="black" /><polygon fill="none" points="-165.8041,-159.3028 -442.2603,-165.4976 -437.5825,-374.2552 -161.1263,-368.0604" stroke="black" /><polygon fill="none" points="-175.5731,-458.6274 140.5654,-786.5249 258.3336,-672.9801 -57.8049,-345.0826" stroke="black" /><polygon fill="none" points="227.1082,315.8167 -227.3853,509.4348 -345.2292,232.8114 109.2643,39.1933" stroke="black" /><polygon fill="none" points="145.0225,88.0316 418.7947,108.3626 267.2789,291.6449" stroke="black" /><polygon fill="none" points="94.7404,170.0346 54.6179,218.4412 41.0816,165.8232" stroke="black" /><polygon fill="none" points="100.9432,113.0172 3.8113,191.673 -2.6201,83.6462" stroke="black" /></svg>