<?xml version="1.0" encoding="utf-8" ?>
<svg baseProfile="tiny" height="485" version="1.2" width="300" xmlns="http://www.w3.org/2000/svg" xmlns:ev="http://www.w3.org/2001/xml-events" xmlns:xlink="http://www.w3.org/1999/xlink"><defs /><rect fill="white" height="485" width="300" x="0" y="0" /><circle cx="-47" cy="211" fill="none" r="224" stroke="black" /><circle cx="-233" cy="435" fill="none" r="214" stroke="black" /><polygon fill="none" points="-77.2545,-399.5044 96.2935,-522.821 191.3878,-388.9914 17.8398,-265.6747" stroke="black" /><polygon fill="none" points="-278.0484,-219.2799 -180.0918,-126.1439 -504.8055,215.3766 -602.7621,122.2406" stroke="black" /><polygon fill="none" points="106.6072,230.6259 7.2701,120.2199 273.4259,-119.252 372.763,-8.846" stroke="black" /><polygon fill="none" points="-49.1913,-152.5461 118.3417,-282.4314 420.5712,107.4003 253.0382,237.2856" stroke="black" /><polygon fill="none" points="41.8857,183.4418 24.2575,210.5908 14.7208,184.8802" stroke="black" /><polygon fill="none" points="257.8703,106.0405 262.3274,-42.4266 365.0435,35.2246" stroke="black" /><polygon fill="none" points="21.5041,393.6747 20.2807,348.3392 52.899,370.8195" stroke="black" /></svg>