<?xml version="1.0" encoding="utf-8" ?>
<svg baseProfile="tiny" height="485" version="1.2" width="300" xmlns="http://www.w3.org/2000/svg" xmlns:ev="http://www.w3.org/2001/xml-events" xmlns:xlink="http://www.w3.org/1999/xlink"><defs /><rect fill="white" height="485" width="300" x="0" y="0" /><circle cx="105" cy="138" fill="none" r="47" stroke="black" /><circle cx="-233" cy="416" fill="none" r="44" stroke="black" /><polygon fill="none" points="226.6092,-19.6305 370.5163,183.7568 283.6336,245.2308 139.7265,41.8435" stroke="black" /><polygon fill="none" points="-132.1019,369.0715 5.3767,29.7642 255.0911,130.942 117.6125,470.2493" stroke="black" /><polygon fill="none" points="-265.1247,93.5887 -187.9346,87.6593 -154.7373,519.8227 -231.9275,525.7522" stroke="black" /><polygon fill="none" points="36.9547,-453.9793 253.3205,-211.2552 118.3285,-90.9225 -98.0373,-333.6466" stroke="black" /><polygon fill="none" points="221.4689,155.7979 459.3899,169.485 330.6237,330.3551" stroke="black" /><polygon fill="none" points="209.7072,369.7346 243.1077,361.5037 231.9559,388.9698" stroke="black" /><polygon fill="none" points="213.7171,182.2671 310.7862,-6.3308 394.7081,156.205" stroke="black" /></svg>