<?xml version="1.0" encoding="utf-8" ?>
<svg baseProfile="tiny" height="485" version="1.2" width="300" xmlns="http://www.w3.org/2000/svg" xmlns:ev="http://www.w3.org/2001/xml-events" xmlns:xlink="http://www.w3.org/1999/xlink"><defs /><rect fill="white" height="485" width="300" x="0" y="0" /><circle cx="249" cy="180" fill="none" r="41" stroke="black" /><circle cx="-137" cy="-341" fill="none" r="65" stroke="black" /><polygon fill="none" points="-282.751,425.9194 -147.2363,397.9925 -125.42,503.8555 -260.9348,531.7824" stroke="black" /><polygon fill="none" points="-178.2429,-74.4261 -314.7018,141.8126 -464.3253,47.3916 -327.8665,-168.8471" stroke="black" /><polygon fill="none" points="-5.9681,225.8371 19.5204,593.0341 -185.3989,607.2582 -210.8873,240.0613" stroke="black" /><polygon fill="none" points="-71.6336,-450.1943 -154.2881,-54.1694 -445.7839,-115.0076 -363.1294,-511.0325" stroke="black" /><polygon fill="none" points="91.4666,289.3303 137.0362,33.1193 295.388,193.5595" stroke="black" /><polygon fill="none" points="2.4435,131.514 110.7673,61.315 105.6408,173.0749" stroke="black" /><polygon fill="none" points="71.236,103.3898 24.4705,187.2414 -10.6589,112.6762" stroke="black" /></svg>