<?xml version="1.0" encoding="utf-8" ?>
<svg baseProfile="tiny" height="485" version="1.2" width="300" xmlns="http://www.w3.org/2000/svg" xmlns:ev="http://www.w3.org/2001/xml-events" xmlns:xlink="http://www.w3.org/1999/xlink"><defs /><rect fill="white" height="485" width="300" x="0" y="0" /><circle cx="-128" cy="-162" fill="none" r="95" stroke="black" /><circle cx="-151" cy="-33" fill="none" r="133" stroke="black" /><polygon fill="none" points="-235.666,460.8337 -675.6345,665.909 -767.43,468.9708 -327.4616,263.8955" stroke="black" /><polygon fill="none" points="299.2411,-88.0168 419.8663,261.8545 225.6215,328.8243 104.9963,-21.0469" stroke="black" /><polygon fill="none" points="166.8898,40.3751 -53.4192,397.004 -348.4403,214.7535 -128.1314,-141.8754" stroke="black" /><polygon fill="none" points="224.3672,208.4165 271.9093,-54.971 609.8485,6.028 562.3063,269.4154" stroke="black" /><polygon fill="none" points="54.3431,152.8238 -72.5359,113.9202 18.5056,44.5618" stroke="black" /><polygon fill="none" points="171.5949,298.3908 107.9811,58.4901 308.9667,133.6789" stroke="black" /><polygon fill="none" points="1.1249,421.9554 -76.6374,156.0052 149.5595,234.7759" stroke="black" /></svg>