<?xml version="1.0" encoding="utf-8" ?>
<svg baseProfile="tiny" height="485" version="1.2" width="300" xmlns="http://www.w3.org/2000/svg" xmlns:ev="http://www.w3.org/2001/xml-events" xmlns:xlink="http://www.w3.org/1999/xlink"><defs /><rect fill="white" height="485" width="300" x="0" y="0" /><circle cx="-195" cy="-102" fill="none" r="273" stroke="black" /><circle cx="-232" cy="383" fill="none" r="99" stroke="black" /><circle cx="152" cy="-13" fill="none" r="194" stroke="black" /><polygon fill="none" points="139.6742,-152.4972 191.4874,37.8128 -186.1265,140.6209 -237.9398,-49.6891" stroke="black" /><polygon fill="none" points="-157.7766,84.9762 248.8385,-177.3956 371.7973,13.1617 -34.8178,275.5336" stroke="black" /><polygon fill="none" points="-245.4166,439.361 -409.326,789.4443 -496.1452,748.7954 -332.2358,398.7121" stroke="black" /><polygon fill="none" points="34.7961,273.0443 -50.5038,71.5072 190.6129,-30.5447 275.9128,170.9925" stroke="black" /><polygon fill="none" points="218.2114,159.1142 343.6202,198.9954 251.9706,267.4393" stroke="black" /><polygon fill="none" points="80.7127,422.7746 46.5859,554.254 -29.041,463.5071" stroke="black" /><polygon fill="none" points="144.2657,37.3712 286.4525,-47.5667 274.6632,95.762" stroke="black" /></svg>