<?xml version="1.0" encoding="utf-8" ?>
<svg baseProfile="tiny" height="485" version="1.2" width="300" xmlns="http://www.w3.org/2000/svg" xmlns:ev="http://www.w3.org/2001/xml-events" xmlns:xlink="http://www.w3.org/1999/xlink"><defs /><rect fill="white" height="485" width="300" x="0" y="0" /><circle cx="150" cy="52" fill="none" r="65" stroke="black" /><circle cx="242" cy="-52" fill="none" r="123" stroke="black" /><circle cx="17" cy="394" fill="none" r="223" stroke="black" /><polygon fill="none" points="-200.0889,-422.4949 -177.5744,-397.4 -492.8729,-114.5225 -515.3875,-139.6174" stroke="black" /><polygon fill="none" points="175.581,146.9105 148.1813,332.9688 -306.8755,265.9554 -279.4758,79.897" stroke="black" /><polygon fill="none" points="-86.3185,-75.0011 -113.2832,137.7039 -593.3367,76.8474 -566.3721,-135.8576" stroke="black" /><polygon fill="none" points="-0.5642,-301.7725 87.2864,-297.9417 84.9908,-245.3004 -2.8597,-249.1313" stroke="black" /><polygon fill="none" points="25.5385,197.5914 -19.7523,133.98 47.7224,133.9214" stroke="black" /><polygon fill="none" points="83.0011,298.3954 248.7817,295.0503 167.3447,413.7173" stroke="black" /><polygon fill="none" points="91.8583,209.1481 138.0788,-19.7714 276.5525,128.0983" stroke="black" /></svg>