<?xml version="1.0" encoding="utf-8" ?>
<svg baseProfile="tiny" height="485" version="1.2" width="300" xmlns="http://www.w3.org/2000/svg" xmlns:ev="http://www.w3.org/2001/xml-events" xmlns:xlink="http://www.w3.org/1999/xlink"><defs /><rect fill="white" height="485" width="300" x="0" y="0" /><circle cx="112" cy="-93" fill="none" r="171" stroke="black" /><circle cx="-268" cy="-58" fill="none" r="77" stroke="black" /><circle cx="86" cy="410" fill="none" r="160" stroke="black" /><polygon fill="none" points="-115.7302,-412.4114 -36.8287,-726.471 41.6217,-706.7618 -37.2798,-392.7022" stroke="black" /><polygon fill="none" points="195.0428,-270.6785 207.4668,-110.3508 -151.5902,-82.527 -164.0142,-242.8547" stroke="black" /><polygon fill="none" points="-229.7808,417.0584 43.984,509.3493 -99.3702,934.5841 -373.135,842.2932" stroke="black" /><polygon fill="none" points="284.2135,175.2166 229.0484,205.6861 156.1995,73.7929 211.3647,43.3234" stroke="black" /><polygon fill="none" points="155.8182,404.9507 7.6808,401.3529 84.3651,299.1846" stroke="black" /><polygon fill="none" points="33.4149,437.3718 231.848,440.1707 130.4306,578.7541" stroke="black" /><polygon fill="none" points="271.4824,423.0392 265.5533,563.6193 169.6206,488.8052" stroke="black" /></svg>